<svg t="1703238590641" class="icon" viewBox="0 0 1024 1024" version="1.1" xmlns="http://www.w3.org/2000/svg" p-id="5947" width="200" height="200"><path d="M955.733333 629.213867a34.133333 34.133333 0 0 1 34.133334 34.133333v273.066667a34.133333 34.133333 0 0 1-34.133334 34.133333H68.266667a34.133333 34.133333 0 0 1-34.133334-34.133333v-273.066667a34.133333 34.133333 0 0 1 34.133334-34.133333h887.466666z m-409.6 137.693866H477.866667a34.133333 34.133333 0 1 0 0 68.266667h68.266666a34.133333 34.133333 0 0 0 0-68.266667zM955.733333 238.933333a34.133333 34.133333 0 0 1 34.133334 34.133334v273.066666a34.133333 34.133333 0 0 1-34.133334 34.133334H68.266667A34.133333 34.133333 0 0 1 34.133333 546.133333V273.066667a34.133333 34.133333 0 0 1 34.133334-34.133334h887.466666z m-409.6 136.533334H477.866667a34.133333 34.133333 0 0 0 0 68.266666h68.266666a34.133333 34.133333 0 0 0 0-68.266666zM184.797867 69.4272h654.404266a34.133333 34.133333 0 0 1 24.098134 10.0352L989.866667 205.960533H34.133333l126.5664-126.498133a34.133333 34.133333 0 0 1 24.098134-10.0352z" fill="#272536" p-id="5948"></path></svg>